<svg id="Layer_1" data-name="Layer 1" xmlns="http://www.w3.org/2000/svg" viewBox="0 0 115 152.36"><defs><style>.cls-1{fill:#ebf2f9;}.cls-2{fill:#2f2d63;}.cls-3{fill:#2963a5;}.cls-4{fill:#eb9c3d;}.cls-5{opacity:0.52;}.cls-6{fill:#c8344a;}.cls-7{fill:#edf4fb;}.cls-8{fill:#fff;}.cls-9{fill:#b7d2ee;}.cls-10{fill:#444593;}</style></defs><title>rocket</title><g id="_Group_" data-name="&lt;Group&gt;"><g id="_Group_2" data-name="&lt;Group&gt;"><g id="_Group_3" data-name="&lt;Group&gt;"><circle id="_Path_" data-name="&lt;Path&gt;" class="cls-1" cx="57.5" cy="94.86" r="55.9"/></g><g id="_Group_4" data-name="&lt;Group&gt;"><path id="_Compound_Path_" data-name="&lt;Compound Path&gt;" class="cls-2" d="M57.5,152.3A57.5,57.5,0,1,1,115,94.8,57.57,57.57,0,0,1,57.5,152.3Zm0-111.7a54.2,54.2,0,1,0,54.2,54.2A54.24,54.24,0,0,0,57.5,40.6Z" transform="translate(0 0.06)"/></g></g><g id="_Group_5" data-name="&lt;Group&gt;"><g id="_Group_6" data-name="&lt;Group&gt;"><path id="_Path_2" data-name="&lt;Path&gt;" class="cls-3" d="M45.7,85.7a56,56,0,0,1,54.8,44.8,55.89,55.89,0,0,0-43-91.6A55.87,55.87,0,0,0,2.7,105.8,55.87,55.87,0,0,1,45.7,85.7Z" transform="translate(0 0.06)"/></g><g id="_Group_7" data-name="&lt;Group&gt;"><path id="_Compound_Path_2" data-name="&lt;Compound Path&gt;" class="cls-2" d="M100.5,132.1h-0.4a1.61,1.61,0,0,1-1.2-1.3A54.38,54.38,0,0,0,45.7,87.3,53.79,53.79,0,0,0,4,106.9a1.42,1.42,0,0,1-1.6.5,1.61,1.61,0,0,1-1.2-1.3A52.86,52.86,0,0,1,0,94.8a57.5,57.5,0,1,1,101.7,36.7A1.56,1.56,0,0,1,100.5,132.1Zm-54.8-48a57.7,57.7,0,0,1,55.6,42.8,54.22,54.22,0,1,0-98-32.1,60,60,0,0,0,.5,7.4A57,57,0,0,1,45.7,84.1Z" transform="translate(0 0.06)"/></g></g><g id="_Group_8" data-name="&lt;Group&gt;"><g id="_Group_9" data-name="&lt;Group&gt;"><g id="_Group_10" data-name="&lt;Group&gt;"><path id="_Path_3" data-name="&lt;Path&gt;" class="cls-4" d="M44.2,137.9s38-19.3,21.1-39.8L53,93.7c-26,5.3-8.8,44.2-8.8,44.2" transform="translate(0 0.06)"/></g></g><g id="_Group_11" data-name="&lt;Group&gt;" class="cls-5"><g id="_Group_12" data-name="&lt;Group&gt;"><path id="_Path_4" data-name="&lt;Path&gt;" class="cls-6" d="M47,130.2s31.7-15.4,17.3-32.3L53.9,94.2c-21.8,4.1-6.9,36-6.9,36" transform="translate(0 0.06)"/></g></g><g id="_Group_13" data-name="&lt;Group&gt;"><g id="_Group_14" data-name="&lt;Group&gt;"><g id="_Group_15" data-name="&lt;Group&gt;"><path id="_Path_5" data-name="&lt;Path&gt;" class="cls-7" d="M91,1.9c-17.9,4-25.4,30.3-25.4,30.3l-17,49.6S56.4,93.7,75.4,91l17-49.6S102.7,16,91,1.9" transform="translate(0 0.06)"/></g></g><g id="_Group_16" data-name="&lt;Group&gt;"><g id="_Group_17" data-name="&lt;Group&gt;"><path id="_Path_6" data-name="&lt;Path&gt;" class="cls-8" d="M62.1,42.4l-1.5,4.5s-3,11.7-13.5,12.9S33.3,73.4,33.3,73.4,42.8,72,49.5,79" transform="translate(0 0.06)"/></g><g id="_Group_18" data-name="&lt;Group&gt;"><path id="_Path_7" data-name="&lt;Path&gt;" class="cls-2" d="M49.6,80.8a1.61,1.61,0,0,1-1.3-.6c-5.9-6.1-14.5-5-14.6-5a1.92,1.92,0,0,1-1.7-.6,1.79,1.79,0,0,1-.4-1.7A26.35,26.35,0,0,1,34.7,66c3.1-4.7,7.3-7.5,12.1-8.1,9.1-1.1,11.8-11.1,11.9-11.5V46.3l1.5-4.5A1.9,1.9,0,0,1,63.8,43l-1.5,4.4C62,48.6,58.5,60.3,47.2,61.6c-6.4.8-9.8,6.4-11.2,9.7a21.61,21.61,0,0,1,14.9,6.2,2,2,0,0,1,0,2.7A1.94,1.94,0,0,1,49.6,80.8Z" transform="translate(0 0.06)"/></g></g><g id="_Group_19" data-name="&lt;Group&gt;"><g id="_Group_20" data-name="&lt;Group&gt;"><path id="_Path_8" data-name="&lt;Path&gt;" class="cls-9" d="M89,51.6l-1.5,4.5s-4.8,11.1,2.7,18.5,2.5,19.1,2.5,19.1S86,86.8,76.5,88.1" transform="translate(0 0.06)"/></g><g id="_Group_21" data-name="&lt;Group&gt;"><path id="_Path_9" data-name="&lt;Path&gt;" class="cls-2" d="M92.6,95.6a2,2,0,0,1-1.4-.6c-0.1-.1-6.2-6.2-14.6-5a1.87,1.87,0,0,1-.5-3.7c7.1-1,12.6,2.1,15.6,4.2,0.9-3.5,1.7-10-2.9-14.5-8.1-8-3.6-19.4-3.2-20.5l1.5-4.4a1.9,1.9,0,1,1,3.6,1.2l-1.5,4.5a0.1,0.1,0,0,1-.1.1,20,20,0,0,0-1.3,6,13.18,13.18,0,0,0,3.6,10.5c3.5,3.4,5.1,8.2,4.6,13.8a34,34,0,0,1-1.7,7.4,1.93,1.93,0,0,1-1.4,1.1C92.9,95.6,92.7,95.6,92.6,95.6Z" transform="translate(0 0.06)"/></g></g><g id="_Group_22" data-name="&lt;Group&gt;"><g id="_Group_23" data-name="&lt;Group&gt;"><polyline id="_Path_10" data-name="&lt;Path&gt;" class="cls-9" points="70.6 92.56 68.3 99.36 49.2 92.76 51.5 85.96"/></g><g id="_Group_24" data-name="&lt;Group&gt;"><path id="_Path_11" data-name="&lt;Path&gt;" class="cls-2" d="M68.3,101.2a1.27,1.27,0,0,1-.6-0.1L48.6,94.5a1.82,1.82,0,0,1-1.1-1,1.72,1.72,0,0,1-.1-1.4l2.3-6.8a1.9,1.9,0,0,1,3.6,1.2l-1.7,5,15.5,5.3,1.7-5A1.9,1.9,0,0,1,72.4,93L70,99.9A1.8,1.8,0,0,1,68.3,101.2Z" transform="translate(0 0.06)"/></g></g><g id="_Group_25" data-name="&lt;Group&gt;"><g id="_Group_26" data-name="&lt;Group&gt;"><path id="_Path_12" data-name="&lt;Path&gt;" class="cls-8" d="M52.5,85.7L70.3,33.8S77,10.5,92.7,4.4a14.37,14.37,0,0,0-1.8-2.5C73,5.9,65.5,32.2,65.5,32.2l-17,49.6A49,49,0,0,0,52.5,85.7Z" transform="translate(0 0.06)"/></g></g><g id="_Group_27" data-name="&lt;Group&gt;"><g id="_Group_28" data-name="&lt;Group&gt;"><path id="_Path_13" data-name="&lt;Path&gt;" class="cls-9" d="M91,1.9a20.52,20.52,0,0,0-4.9,1.8c6.8,14.4-1.5,34.9-1.5,34.9l-18,52.6a38.6,38.6,0,0,0,8.9-.2l17-49.6C92.4,41.4,102.7,16,91,1.9Z" transform="translate(0 0.06)"/></g></g><g id="_Group_29" data-name="&lt;Group&gt;"><g id="_Group_30" data-name="&lt;Group&gt;"><path id="_Compound_Path_3" data-name="&lt;Compound Path&gt;" class="cls-2" d="M69.9,93.2c-15.7,0-22.5-10-22.8-10.4a1.84,1.84,0,0,1-.2-1.6l17-49.5a67.77,67.77,0,0,1,6.1-14C75.7,7.9,82.8,1.8,90.6,0a2,2,0,0,1,1.9.6c5.1,6.2,7,15.4,5.5,26.5a63.76,63.76,0,0,1-3.8,14.8l-17,49.5a1.72,1.72,0,0,1-1.5,1.2A24.33,24.33,0,0,1,69.9,93.2ZM50.7,81.4c1.9,2.3,9,9.4,23.3,7.8L90.6,40.7V40.6a67.15,67.15,0,0,0,3.5-14.1c0.9-6.7.9-15.9-3.9-22.6C74.5,8.6,67.5,32.4,67.5,32.7v0.1Z" transform="translate(0 0.06)"/></g></g><g id="_Group_31" data-name="&lt;Group&gt;"><g id="_Group_32" data-name="&lt;Group&gt;"><path id="_Compound_Path_4" data-name="&lt;Compound Path&gt;" class="cls-2" d="M80.5,40.7a6.46,6.46,0,0,1-2.7-.5A7.82,7.82,0,0,1,73.1,36a8.12,8.12,0,0,1-.4-6.3A7.82,7.82,0,0,1,76.9,25a8.12,8.12,0,0,1,6.3-.4,7.82,7.82,0,0,1,4.7,4.2,8.12,8.12,0,0,1,.4,6.3,7.82,7.82,0,0,1-4.2,4.7A7.4,7.4,0,0,1,80.5,40.7Zm0-13a5.37,5.37,0,0,0-2.1.5A4.89,4.89,0,0,0,76,30.9a5,5,0,0,0,.2,3.6,4.89,4.89,0,0,0,2.7,2.4,5,5,0,0,0,3.6-.2A4.89,4.89,0,0,0,84.9,34a5,5,0,0,0-.2-3.6A4.89,4.89,0,0,0,82,28,3.65,3.65,0,0,0,80.5,27.7Z" transform="translate(0 0.06)"/></g></g><g id="_Group_33" data-name="&lt;Group&gt;"><g id="_Group_34" data-name="&lt;Group&gt;"><path id="_Path_14" data-name="&lt;Path&gt;" class="cls-10" d="M83.3,30.9a2.92,2.92,0,0,1-.1,1.6,3.21,3.21,0,0,1-4,2,3.25,3.25,0,0,1-1.6-1.2,3.19,3.19,0,0,0,2.1,2.4,3.06,3.06,0,0,0,4-2A2.81,2.81,0,0,0,83.3,30.9Z" transform="translate(0 0.06)"/></g></g></g></g></g></svg>