<?xml version="1.0" encoding="utf-8"?>
<!-- Generator: Adobe Illustrator 19.0.0, SVG Export Plug-In . SVG Version: 6.00 Build 0)  -->
<svg version="1.1" id="Layer_1" xmlns="http://www.w3.org/2000/svg" xmlns:xlink="http://www.w3.org/1999/xlink" x="0px" y="0px"
	 viewBox="0 0 438.8 152.3" style="enable-background:new 0 0 438.8 152.3;" xml:space="preserve">
<style type="text/css">
	.st0{fill:#EBF2F9;}
	.st1{fill:#2F2D63;}
	.st2{fill:#2963A5;}
	.st3{fill:#EB9C3D;}
	.st4{opacity:0.52;}
	.st5{fill:#C8344A;}
	.st6{fill:#EDF4FB;}
	.st7{fill:#FFFFFF;}
	.st8{fill:#B7D2EE;}
	.st9{fill:#444593;}
</style>
<g id="XMLID_132_">
	<g id="XMLID_110_">
		<g id="XMLID_128_">
			<circle id="XMLID_184_" class="st0" cx="57.5" cy="94.8" r="55.9"/>
		</g>
		<g id="XMLID_129_">
			<path id="XMLID_180_" class="st1" d="M57.5,152.3C25.8,152.3,0,126.5,0,94.8c0-31.7,25.8-57.5,57.5-57.5S115,63.1,115,94.8
				C115,126.5,89.2,152.3,57.5,152.3z M57.5,40.6c-29.9,0-54.2,24.3-54.2,54.2c0,29.9,24.3,54.2,54.2,54.2s54.2-24.3,54.2-54.2
				C111.7,64.9,87.4,40.6,57.5,40.6z"/>
		</g>
	</g>
	<g id="XMLID_109_">
		<g id="XMLID_124_">
			<path id="XMLID_177_" class="st2" d="M45.7,85.7c27.1,0,49.6,19.3,54.8,44.8c8.1-9.7,12.9-22.1,12.9-35.7
				c0-30.9-25-55.9-55.9-55.9S1.6,64,1.6,94.8c0,3.8,0.4,7.5,1.1,11C13,93.5,28.4,85.7,45.7,85.7z"/>
		</g>
		<g id="XMLID_125_">
			<path id="XMLID_173_" class="st1" d="M100.5,132.1c-0.1,0-0.3,0-0.4,0c-0.6-0.2-1.1-0.6-1.2-1.3c-5.1-25.2-27.4-43.5-53.2-43.5
				c-16.2,0-31.4,7.1-41.7,19.6c-0.4,0.5-1,0.7-1.6,0.5c-0.6-0.2-1.1-0.6-1.2-1.3C0.4,102.5,0,98.6,0,94.8
				c0-31.7,25.8-57.5,57.5-57.5S115,63.1,115,94.8c0,13.4-4.7,26.5-13.3,36.7C101.4,131.9,100.9,132.1,100.5,132.1z M45.7,84.1
				c26.1,0,49,17.8,55.6,42.8c6.8-9.3,10.5-20.5,10.5-32c0-29.9-24.3-54.2-54.2-54.2S3.3,64.9,3.3,94.8c0,2.5,0.2,5,0.5,7.4
				C14.6,90.6,29.7,84.1,45.7,84.1z"/>
		</g>
	</g>
	<g id="XMLID_95_">
		<g id="XMLID_108_">
			<g id="XMLID_137_">
				<path id="XMLID_170_" class="st3" d="M44.2,137.9c0,0,38-19.3,21.1-39.8L53,93.7C27,99,44.2,137.9,44.2,137.9"/>
			</g>
		</g>
		<g id="XMLID_107_" class="st4">
			<g id="XMLID_123_">
				<path id="XMLID_167_" class="st5" d="M47,130.2c0,0,31.7-15.4,17.3-32.3l-10.4-3.7C32.1,98.3,47,130.2,47,130.2"/>
			</g>
		</g>
		<g id="XMLID_96_">
			<g id="XMLID_106_">
				<g id="XMLID_136_">
					<path id="XMLID_164_" class="st6" d="M91,1.9c-17.9,4-25.4,30.3-25.4,30.3l-17,49.6c0,0,7.8,11.9,26.8,9.2l17-49.6
						C92.4,41.4,102.7,16,91,1.9"/>
				</g>
			</g>
			<g id="XMLID_105_">
				<g id="XMLID_121_">
					<path id="XMLID_161_" class="st7" d="M62.1,42.4l-1.5,4.5c0,0-3,11.7-13.5,12.9S33.3,73.4,33.3,73.4s9.5-1.4,16.2,5.6"/>
				</g>
				<g id="XMLID_122_">
					<path id="XMLID_159_" class="st1" d="M49.6,80.8c-0.5,0-1-0.2-1.3-0.6c-5.9-6.1-14.5-5-14.6-5c-0.6,0.1-1.2-0.1-1.7-0.6
						c-0.4-0.5-0.6-1.1-0.4-1.7c0-0.1,0.9-3.4,3.1-6.9c3.1-4.7,7.3-7.5,12.1-8.1c9.1-1.1,11.8-11.1,11.9-11.5c0,0,0-0.1,0-0.1
						l1.5-4.5c0.3-1,1.4-1.5,2.4-1.2c1,0.3,1.5,1.4,1.2,2.4l-1.5,4.4c-0.3,1.2-3.8,12.9-15.1,14.2c-6.4,0.8-9.8,6.4-11.2,9.7
						c3.6,0.1,9.9,1.1,14.9,6.2c0.7,0.7,0.7,1.9,0,2.7C50.5,80.6,50,80.8,49.6,80.8z"/>
				</g>
			</g>
			<g id="XMLID_104_">
				<g id="XMLID_119_">
					<path id="XMLID_156_" class="st8" d="M89,51.6l-1.5,4.5c0,0-4.8,11.1,2.7,18.5s2.5,19.1,2.5,19.1s-6.7-6.9-16.2-5.6"/>
				</g>
				<g id="XMLID_120_">
					<path id="XMLID_154_" class="st1" d="M92.6,95.6c-0.5,0-1-0.2-1.4-0.6c-0.1-0.1-6.2-6.2-14.6-5c-1,0.1-2-0.6-2.1-1.6
						c-0.1-1,0.6-2,1.6-2.1c7.1-1,12.6,2.1,15.6,4.2c0.9-3.5,1.7-10-2.9-14.5c-8.1-8-3.6-19.4-3.2-20.5l1.5-4.4
						c0.3-1,1.4-1.5,2.4-1.2c1,0.3,1.5,1.4,1.2,2.4l-1.5,4.5c0,0,0,0.1-0.1,0.1c0,0-1.1,2.6-1.3,6c-0.3,4.3,1,7.8,3.6,10.5
						c3.5,3.4,5.1,8.2,4.6,13.8c-0.4,4.1-1.7,7.2-1.7,7.4c-0.3,0.6-0.8,1-1.4,1.1C92.9,95.6,92.7,95.6,92.6,95.6z"/>
				</g>
			</g>
			<g id="XMLID_103_">
				<g id="XMLID_111_">
					<polyline id="XMLID_151_" class="st8" points="70.6,92.5 68.3,99.3 49.2,92.7 51.5,85.9 					"/>
				</g>
				<g id="XMLID_118_">
					<path id="XMLID_149_" class="st1" d="M68.3,101.2c-0.2,0-0.4,0-0.6-0.1l-19.1-6.6c-0.5-0.2-0.9-0.5-1.1-1
						c-0.2-0.4-0.3-1-0.1-1.4l2.3-6.8c0.3-1,1.4-1.5,2.4-1.2c1,0.3,1.5,1.4,1.2,2.4l-1.7,5l15.5,5.3l1.7-5c0.3-1,1.4-1.5,2.4-1.2
						c1,0.3,1.5,1.4,1.2,2.4L70,99.9C69.8,100.7,69,101.2,68.3,101.2z"/>
				</g>
			</g>
			<g id="XMLID_102_">
				<g id="XMLID_135_">
					<path id="XMLID_146_" class="st7" d="M52.5,85.7l17.8-51.9c0,0,6.7-23.3,22.4-29.4c-0.5-0.9-1.1-1.7-1.8-2.5
						c-17.9,4-25.4,30.3-25.4,30.3l-17,49.6C48.6,81.7,49.9,83.6,52.5,85.7z"/>
				</g>
			</g>
			<g id="XMLID_101_">
				<g id="XMLID_134_">
					<path id="XMLID_143_" class="st8" d="M91,1.9c-1.7,0.4-3.4,1-4.9,1.8c6.8,14.4-1.5,34.9-1.5,34.9L66.6,91.2
						c2.6,0.3,5.6,0.2,8.9-0.2l17-49.6C92.4,41.4,102.7,16,91,1.9z"/>
				</g>
			</g>
			<g id="XMLID_100_">
				<g id="XMLID_115_">
					<path id="XMLID_138_" class="st1" d="M69.9,93.2c-15.7,0-22.5-10-22.8-10.4c-0.3-0.5-0.4-1.1-0.2-1.6l17-49.5
						c0.2-0.7,2.1-7.1,6.1-14C75.7,7.9,82.8,1.8,90.6,0c0.7-0.2,1.4,0.1,1.9,0.6c5.1,6.2,7,15.4,5.5,26.5c-1.1,8-3.5,14.2-3.8,14.8
						l-17,49.5c-0.2,0.7-0.8,1.1-1.5,1.2C73.6,93.1,71.7,93.2,69.9,93.2z M50.7,81.4c1.9,2.3,9,9.4,23.3,7.8l16.6-48.5
						c0,0,0-0.1,0-0.1c0-0.1,2.5-6.3,3.5-14.1c0.9-6.7,0.9-15.9-3.9-22.6C74.5,8.6,67.5,32.4,67.5,32.7c0,0,0,0.1,0,0.1L50.7,81.4z"
						/>
				</g>
			</g>
			<g id="XMLID_99_">
				<g id="XMLID_112_">
					<path id="XMLID_91_" class="st1" d="M80.5,40.7c-0.9,0-1.8-0.1-2.7-0.5c-2.1-0.7-3.8-2.2-4.7-4.2c-1-2-1.1-4.2-0.4-6.3
						c0.7-2.1,2.2-3.8,4.2-4.7c2-1,4.2-1.1,6.3-0.4c2.1,0.7,3.8,2.2,4.7,4.2c1,2,1.1,4.2,0.4,6.3c-0.7,2.1-2.2,3.8-4.2,4.7
						C83,40.4,81.8,40.7,80.5,40.7z M80.5,27.7c-0.7,0-1.4,0.2-2.1,0.5c-1.1,0.6-2,1.5-2.4,2.7c-0.4,1.2-0.3,2.5,0.2,3.6
						c0.6,1.1,1.5,2,2.7,2.4c1.2,0.4,2.5,0.3,3.6-0.2c1.1-0.6,2-1.5,2.4-2.7c0.4-1.2,0.3-2.5-0.2-3.6c-0.6-1.1-1.5-2-2.7-2.4
						C81.6,27.8,81,27.7,80.5,27.7z"/>
				</g>
			</g>
			<g id="XMLID_98_">
				<g id="XMLID_133_">
					<path id="XMLID_88_" class="st9" d="M83.3,30.9c0.1,0.5,0.1,1.1-0.1,1.6c-0.6,1.7-2.4,2.5-4,2c-0.7-0.2-1.2-0.7-1.6-1.2
						c0.2,1.1,1,2,2.1,2.4c1.7,0.6,3.5-0.3,4-2C84.1,32.7,83.9,31.7,83.3,30.9z"/>
				</g>
			</g>
		</g>
	</g>
</g>
<g id="XMLID_14_">
	<path id="XMLID_6_" class="st2" d="M179.8,85.9c-0.3,0-0.7,0-1.1,0h-5.8v7.4h-4.1V68.8h9.9c6.3,0,9.9,3,9.9,8.4
		c0,3.9-1.8,6.7-5.1,7.9l5.5,8.2h-4.7L179.8,85.9z M178.6,82.2c3.8,0,6-1.6,6-4.9c0-3.2-2.2-4.8-6-4.8h-5.8v9.7H178.6z"/>
	<path id="XMLID_9_" class="st2" d="M218,81c0,7-5.7,12.4-13,12.4c-7.3,0-13-5.4-13-12.4c0-7,5.7-12.4,13-12.4
		C212.3,68.7,218,74,218,81z M196.2,81c0,4.9,4,8.7,8.8,8.7c4.8,0,8.7-3.9,8.7-8.7c0-4.9-3.9-8.6-8.7-8.6
		C200.2,72.4,196.2,76.2,196.2,81z"/>
	<path id="XMLID_12_" class="st2" d="M241.6,72.5l-2.4,3c-1.8-1.9-4.3-3.1-6.8-3.1c-4.9,0-8.8,3.8-8.8,8.6s3.9,8.6,8.8,8.6
		c2.5,0,5-1.1,6.8-2.9l2.5,2.7c-2.5,2.5-6,4-9.5,4c-7.2,0-12.7-5.4-12.7-12.5c0-7,5.6-12.3,12.9-12.3
		C235.7,68.7,239.2,70.1,241.6,72.5z"/>
	<path id="XMLID_18_" class="st2" d="M254.1,82.5l-4.2,4.6v6.2h-4.1V68.8h4.1v12.7l11.7-12.7h4.9L257,79.3l10.1,14h-5L254.1,82.5z"
		/>
	<path id="XMLID_20_" class="st2" d="M275.1,72.5v6.6h12v3.7h-12v6.8h13.8v3.7h-17.9V68.8h17.5v3.7H275.1z"/>
	<path id="XMLID_22_" class="st2" d="M302.9,72.5v20.8h-4.1V72.5H291v-3.7h19.6v3.7H302.9z"/>
	<path id="XMLID_24_" class="st2" d="M325.1,68.7c5.9,0,9.7,2.5,9.7,6.2c0,2.4-1.6,4.5-4.1,5.2c2.9,0.7,4.9,3.1,4.9,6.2
		c0,4.2-3.9,6.9-9.9,6.9h-13V68.7H325.1z M320.8,78.2h3.9c1.1,0,1.9-0.7,1.9-1.8c0-1-0.7-1.7-1.9-1.7h-3.9V78.2z M320.8,87.3h3.9
		c1.5,0,2.5-0.8,2.5-2c0-1.1-1-1.8-2.5-1.8h-3.9V87.3z"/>
	<path id="XMLID_28_" class="st2" d="M361.2,82.9c0,6.5-4.6,10.7-11.7,10.7c-7.1,0-11.9-4.2-11.9-10.7V68.7h8.1v14.1
		c0,2.4,1.8,4,3.8,4c2,0,3.5-1.5,3.5-4V68.7h8.1V82.9z"/>
	<path id="XMLID_30_" class="st2" d="M364.4,93.3V68.7h8.1v24.5H364.4z"/>
	<path id="XMLID_32_" class="st2" d="M394.4,86.5v6.8H376V68.7h8.1v17.8H394.4z"/>
	<path id="XMLID_34_" class="st2" d="M410,75.2v18.1h-8.1V75.2h-7v-6.4H417v6.4H410z"/>
</g>
<g id="XMLID_16_">
	<path id="XMLID_2_" class="st2" d="M426.2,60.5v6.2h-2.8v-6.2H421v-2.2h7.6v2.2H426.2z"/>
	<path id="XMLID_4_" class="st2" d="M436.4,66.7v-4.6l-1.4,3.8h-1.8l-1.4-3.8v4.6h-2.4v-8.4h2.9l1.8,4.4l1.8-4.4h2.9v8.4H436.4z"/>
</g>
</svg>
